<svg width="50" height="50" viewBox="0 0 50 50" fill="none" xmlns="http://www.w3.org/2000/svg">
<g clip-path="url(#clip0)">
<path d="M48.0468 23.0469H6.68376L13.5357 16.2281C14.3003 15.4672 14.3032 14.2306 13.5423 13.466C12.7813 12.7014 11.5446 12.6985 10.7801 13.4594L0.574585 23.6156C0.573902 23.6162 0.573413 23.6169 0.572827 23.6175C-0.18977 24.3784 -0.192211 25.619 0.572632 26.3825C0.573316 26.3831 0.573804 26.3838 0.57439 26.3844L10.7799 36.5406C11.5443 37.3014 12.781 37.2987 13.5421 36.534C14.303 35.7694 14.3001 34.5328 13.5355 33.7719L6.68376 26.9531H48.0468C49.1255 26.9531 50 26.0787 50 25C50 23.9213 49.1255 23.0469 48.0468 23.0469Z" fill="#656274"/>
</g>
<defs>
<clipPath id="clip0">
<rect width="50" height="50" fill="white"/>
</clipPath>
</defs>
</svg>
