<svg width="22" height="25" viewBox="0 0 22 25" fill="none" xmlns="http://www.w3.org/2000/svg">
<path d="M20.4286 10.1562H13.3571V3.125C13.3571 2.26221 12.6534 1.5625 11.7857 1.5625H10.2143C9.34656 1.5625 8.64286 2.26221 8.64286 3.125V10.1562H1.57143C0.703705 10.1562 0 10.856 0 11.7188V13.2812C0 14.144 0.703705 14.8438 1.57143 14.8438H8.64286V21.875C8.64286 22.7378 9.34656 23.4375 10.2143 23.4375H11.7857C12.6534 23.4375 13.3571 22.7378 13.3571 21.875V14.8438H20.4286C21.2963 14.8438 22 14.144 22 13.2812V11.7188C22 10.856 21.2963 10.1562 20.4286 10.1562Z" fill="#5E00FF"/>
</svg>
